<svg width="22" height="19" viewBox="0 0 22 19" fill="none" xmlns="http://www.w3.org/2000/svg">
<path d="M9.88714 18.9441C6.98581 15.8721 3.68981 12.7148 -0.000860214 9.47209C3.71114 6.20809 7.00714 3.05076 9.88714 9.15527e-05L11.7111 1.82409L7.32714 5.82409C6.70847 6.37876 6.11114 6.89076 5.53514 7.36009C4.93781 7.82942 4.55381 8.12809 4.38314 8.25609C4.59647 8.25609 5.04447 8.24542 5.72714 8.22409C6.40981 8.20276 7.24181 8.19209 8.22314 8.19209L21.1191 8.19209V10.7521L8.25514 10.7521C7.40181 10.7521 6.60181 10.7308 5.85514 10.6881C5.10847 10.6668 4.62847 10.6454 4.41514 10.6241C4.58581 10.7521 4.93781 11.0294 5.47114 11.4561C5.98314 11.9041 6.60181 12.4588 7.32714 13.1201L11.7111 17.1201L9.88714 18.9441Z" fill="black"/>
</svg>
