<svg width="15" height="14" viewBox="0 0 15 14" fill="none" xmlns="http://www.w3.org/2000/svg">
<g clip-path="url(#clip0_399_204)">
<path d="M5.8504 7.54859C5.68058 7.47035 5.44186 7.43123 5.13556 7.42767H3.59961V9.33571H5.1111C5.42185 9.33571 5.66236 9.29481 5.83618 9.2099C6.1487 9.05431 6.30607 8.7569 6.30607 8.31634C6.30607 7.94425 6.15448 7.68774 5.8504 7.54859Z" fill="white"/>
<path d="M5.86996 6.06596C6.06335 5.94815 6.15937 5.73877 6.15937 5.43691C6.15937 5.10394 6.03223 4.88299 5.77572 4.77674C5.55522 4.70339 5.27292 4.66516 4.93106 4.66516H3.59961V6.24378H5.11333C5.42407 6.24334 5.67614 6.18421 5.86996 6.06596Z" fill="white"/>
<path d="M10.5092 6.19757C10.1647 6.19757 9.89792 6.29715 9.70854 6.49142C9.51872 6.68658 9.40046 6.95065 9.35156 7.28496H11.661C11.6348 6.92976 11.5161 6.65947 11.3018 6.47586C11.0898 6.29048 10.8253 6.19757 10.5092 6.19757Z" fill="white"/>
<path d="M0.5 0V14H14.5V0H0.5ZM9.05728 3.71917H11.9385V4.4349H9.05728V3.71917ZM7.49467 9.55976C7.35863 9.78293 7.19014 9.97053 6.98787 10.1226C6.75981 10.2977 6.49041 10.4178 6.18055 10.4818C5.86981 10.5467 5.53283 10.5787 5.17096 10.5787H1.94748V3.42309H5.40391C6.27436 3.43598 6.89229 3.68849 7.25683 4.18506C7.47599 4.48958 7.58402 4.85368 7.58402 5.2769C7.58402 5.71567 7.47422 6.0651 7.25283 6.3305C7.13057 6.48031 6.94875 6.61546 6.70824 6.73771C7.07234 6.87197 7.34841 7.08046 7.5329 7.37032C7.71872 7.6575 7.81163 8.00826 7.81163 8.41769C7.81208 8.84269 7.70805 9.22368 7.49467 9.55976ZM13.0516 8.16963H9.31913C9.34002 8.68487 9.5174 9.04496 9.85526 9.25168C10.0584 9.38105 10.3052 9.44373 10.5937 9.44373C10.8991 9.44373 11.1454 9.36682 11.3374 9.20945C11.4414 9.12587 11.5326 9.00718 11.6122 8.8578H12.9801C12.9445 9.16233 12.78 9.46996 12.4835 9.78426C12.0256 10.2826 11.3823 10.5329 10.5563 10.5329C9.87349 10.5329 9.27245 10.3208 8.75054 9.90163C8.23041 9.48107 7.96812 8.7969 7.96812 7.84866C7.96812 6.95999 8.20285 6.27893 8.67363 5.80503C9.1462 5.33113 9.75613 5.09463 10.5074 5.09463C10.9533 5.09463 11.3543 5.1742 11.7131 5.33335C12.07 5.49428 12.3652 5.74679 12.5969 6.09266C12.808 6.39807 12.9423 6.7506 13.0063 7.15382C13.0427 7.38632 13.0583 7.72596 13.0516 8.16963Z" fill="white"/>
</g>
<defs>
<clipPath id="clip0_399_204">
<rect width="14" height="14" fill="white" transform="translate(0.5)"/>
</clipPath>
</defs>
</svg>
