<svg width="17" height="16" viewBox="0 0 17 16" fill="none" xmlns="http://www.w3.org/2000/svg">
<g clip-path="url(#clip0_399_211)">
<path d="M5.30586 0.672629C6.54324 0.129154 7.89817 -0.0906265 9.24357 0.0339023C10.589 0.158431 11.8807 0.623188 12.9977 1.38458C12.0741 2.63897 10.9113 3.69745 9.5766 4.49876C8.45487 2.92113 6.99585 1.614 5.30586 0.672629ZM8.47909 5.07951C7.32142 3.49699 5.78708 2.22946 4.01563 1.3922C2.46824 2.44948 1.33935 4.01604 0.824919 5.81996C1.73197 6.04194 2.66235 6.15398 3.59609 6.15369C5.28236 6.15531 6.94871 5.78874 8.47909 5.07951ZM16.4838 7.51471C16.36 5.46931 15.4556 3.54993 13.9577 2.15403C12.9497 3.5118 11.6872 4.65987 10.2408 5.5341C10.6619 6.2647 11.0103 7.03501 11.2809 7.8339C12.9755 7.3744 14.7458 7.2658 16.4838 7.51471ZM11.6197 9.01712C11.8473 9.98701 11.9619 10.98 11.9614 11.9763C11.9607 13.1403 11.8035 14.2988 11.4942 15.4208C12.8517 14.871 14.0326 13.9589 14.9085 12.7836C15.7844 11.6084 16.3218 10.2151 16.4621 8.75528C14.8474 8.50303 13.1979 8.59222 11.6197 9.01712ZM10.1112 8.21292C9.86369 7.4856 9.54489 6.78461 9.15949 6.12019C7.42332 6.95461 5.52181 7.38672 3.59609 7.38446C2.58105 7.38479 1.56953 7.26505 0.582543 7.02771C0.421833 8.34277 0.590092 9.67722 1.07218 10.911C1.55427 12.1447 2.33506 13.2391 3.34429 14.0956C4.83102 11.3922 7.22975 9.30695 10.1112 8.21292ZM4.34752 14.8246C6.06078 15.8745 8.10626 16.2391 10.076 15.8454C10.51 14.6017 10.7319 13.2938 10.7326 11.9763C10.7326 11.1103 10.6364 10.247 10.4459 9.40226C7.8316 10.4221 5.66828 12.3456 4.34752 14.8246Z" fill="white"/>
</g>
<defs>
<clipPath id="clip0_399_211">
<rect width="16" height="16" fill="white" transform="translate(0.5)"/>
</clipPath>
</defs>
</svg>
