<svg width="17" height="16" viewBox="0 0 17 16" fill="none" xmlns="http://www.w3.org/2000/svg">
<g clip-path="url(#clip0_399_213)">
<path d="M16.5 8.04974C16.5 3.60622 12.9161 0 8.5 0C4.08394 0 0.5 3.60622 0.5 8.04974C0.5 12.0705 3.42482 15.4031 7.25592 16V10.371H5.21267V8.04974H7.25592V6.27565C7.25592 4.26114 8.44233 3.14197 10.2714 3.14197C11.1447 3.14197 12.051 3.30777 12.051 3.30777V5.27254H11.0458C10.0489 5.27254 9.73584 5.90259 9.73584 6.53264V8.04145H11.9603L11.6061 10.3627H9.73584V15.9917C13.5752 15.4031 16.5 12.0705 16.5 8.04974Z" fill="white"/>
</g>
<defs>
<clipPath id="clip0_399_213">
<rect width="16" height="16" fill="white" transform="translate(0.5)"/>
</clipPath>
</defs>
</svg>
