<svg width="15" height="14" viewBox="0 0 15 14" fill="none" xmlns="http://www.w3.org/2000/svg">
<g clip-path="url(#clip0_399_200)">
<path d="M7.49996 1.26129C9.36903 1.26129 9.59041 1.26843 10.3286 1.30211C11.0111 1.33325 11.3817 1.44726 11.6284 1.54313C11.9324 1.65534 12.2075 1.83427 12.4333 2.06676C12.6657 2.29256 12.8447 2.56759 12.9569 2.87163C13.0527 3.11829 13.1668 3.48893 13.1979 4.17143C13.2316 4.90958 13.2387 5.13095 13.2387 7.0001C13.2387 8.86924 13.2316 9.09056 13.1979 9.82877C13.1668 10.5113 13.0527 10.8819 12.9569 11.1286C12.8404 11.4305 12.6621 11.7046 12.4333 11.9334C12.2045 12.1622 11.9303 12.3406 11.6284 12.4571C11.3817 12.5529 11.0111 12.667 10.3286 12.6981C9.5906 12.7318 9.36923 12.7389 7.49996 12.7389C5.63069 12.7389 5.4094 12.7318 4.67131 12.6981C3.98882 12.6669 3.61821 12.5529 3.37152 12.4571C3.06748 12.3449 2.79245 12.1659 2.56666 11.9334C2.33418 11.7076 2.15525 11.4326 2.04303 11.1286C1.94717 10.8819 1.83313 10.5113 1.80201 9.82877C1.76833 9.09065 1.76119 8.86924 1.76119 7.0001C1.76119 5.13095 1.76833 4.90963 1.80201 4.17143C1.83316 3.48893 1.94717 3.11832 2.04303 2.87163C2.15526 2.56757 2.33421 2.29253 2.56672 2.06674C2.79251 1.83425 3.06754 1.65532 3.37158 1.5431C3.61824 1.44723 3.98888 1.3332 4.67137 1.30208C5.40951 1.2684 5.63083 1.26129 7.49996 1.26129ZM7.50001 0C5.59893 0 5.36047 0.00805809 4.61396 0.0421244C3.86887 0.0761351 3.36005 0.19445 2.9148 0.367505C2.44773 0.543272 2.02462 0.818808 1.67497 1.1749C1.31881 1.52452 1.04319 1.94764 0.867363 2.41473C0.694449 2.86001 0.576135 3.36884 0.542263 4.11394C0.508058 4.86045 0.5 5.09891 0.5 7.00001C0.5 8.90111 0.508058 9.13958 0.542263 9.88609C0.576273 10.6312 0.694588 11.14 0.867641 11.5853C1.04341 12.0523 1.31894 12.4755 1.67503 12.8251C2.02467 13.1812 2.44778 13.4567 2.91485 13.6325C3.36013 13.8055 3.86895 13.9239 4.61402 13.9579C5.36063 13.9919 5.59901 14 7.50007 14C9.40113 14 9.63962 13.9919 10.3861 13.9579C11.1312 13.9239 11.64 13.8055 12.0853 13.6325C12.5503 13.4526 12.9726 13.1776 13.3251 12.8251C13.6777 12.4726 13.9527 12.0503 14.1325 11.5853C14.3055 11.14 14.4239 10.6312 14.4579 9.88609C14.4919 9.13947 14.5 8.90109 14.5 7.00001C14.5 5.09894 14.4919 4.86045 14.4579 4.11394C14.4239 3.36884 14.3055 2.86001 14.1325 2.41476C13.9567 1.94769 13.6812 1.52457 13.3251 1.17493C12.9755 0.818765 12.5523 0.543171 12.0852 0.367366C11.6399 0.19445 11.1311 0.0761351 10.386 0.0422633C9.6395 0.0080581 9.4011 0 7.50001 0Z" fill="white"/>
<path d="M7.50083 3.4054C6.78989 3.4054 6.09492 3.61622 5.50379 4.0112C4.91266 4.40618 4.45194 4.96758 4.17987 5.62441C3.90781 6.28124 3.83662 7.00399 3.97532 7.70128C4.11402 8.39856 4.45637 9.03906 4.95908 9.54178C5.46179 10.0445 6.10228 10.3868 6.79956 10.5255C7.49684 10.6642 8.21959 10.593 8.87642 10.321C9.53324 10.0489 10.0946 9.58819 10.4896 8.99706C10.8846 8.40592 11.0954 7.71095 11.0954 7.00001C11.0954 6.04666 10.7167 5.13236 10.0426 4.45824C9.36847 3.78412 8.45417 3.4054 7.50083 3.4054ZM7.50083 9.33331C7.03935 9.33331 6.58823 9.19647 6.20452 8.94007C5.82082 8.68368 5.52176 8.31927 5.34516 7.89291C5.16856 7.46655 5.12236 6.9974 5.21239 6.54478C5.30243 6.09216 5.52466 5.67641 5.85097 5.35009C6.17729 5.02377 6.59305 4.80155 7.04566 4.71152C7.49828 4.62149 7.96743 4.6677 8.39378 4.8443C8.82013 5.02091 9.18454 5.31998 9.44093 5.70369C9.69731 6.0874 9.83416 6.53852 9.83416 7.00001C9.83415 7.61884 9.58831 8.21233 9.15073 8.64991C8.71315 9.0875 8.11966 9.33331 7.50083 9.33331Z" fill="white"/>
<path d="M11.2365 4.10332C11.7004 4.10332 12.0764 3.72724 12.0764 3.26333C12.0764 2.79941 11.7004 2.42334 11.2365 2.42334C10.7726 2.42334 10.3965 2.79941 10.3965 3.26333C10.3965 3.72724 10.7726 4.10332 11.2365 4.10332Z" fill="white"/>
</g>
<defs>
<clipPath id="clip0_399_200">
<rect width="14" height="14" fill="white" transform="translate(0.5)"/>
</clipPath>
</defs>
</svg>
