<svg width="22" height="19" viewBox="0 0 22 19" fill="none" xmlns="http://www.w3.org/2000/svg">
<path d="M11.232 0C14.1333 3.072 17.4293 6.22933 21.12 9.472C17.408 12.736 14.112 15.8933 11.232 18.944L9.408 17.12L13.792 13.12C14.4107 12.5653 15.008 12.0533 15.584 11.584C16.1813 11.1147 16.5653 10.816 16.736 10.688C16.5227 10.688 16.0747 10.6987 15.392 10.72C14.7093 10.7413 13.8773 10.752 12.896 10.752H0V8.192H12.864C13.7173 8.192 14.5173 8.21333 15.264 8.256C16.0107 8.27733 16.4907 8.29867 16.704 8.32C16.5333 8.192 16.1813 7.91467 15.648 7.488C15.136 7.04 14.5173 6.48533 13.792 5.824L9.408 1.824L11.232 0Z" fill="black"/>
</svg>
