<svg width="196" height="22" viewBox="0 0 196 22" fill="none" xmlns="http://www.w3.org/2000/svg">
<path d="M9.42872 21.448C6.72205 21.448 4.62205 20.8413 3.12872 19.628C1.65405 18.4147 0.907387 16.6787 0.888721 14.42H4.61272C4.63139 15.8387 5.05139 16.856 5.87272 17.472C6.71272 18.088 7.93539 18.396 9.54072 18.396C10.8474 18.396 11.8461 18.1533 12.5367 17.668C13.2274 17.164 13.5727 16.4453 13.5727 15.512C13.5727 14.728 13.2741 14.1307 12.6767 13.72C12.0981 13.3093 11.0341 12.9453 9.48472 12.628L7.80472 12.292C3.53005 11.4893 1.39272 9.47333 1.39272 6.244C1.39272 4.52667 2.04605 3.164 3.35272 2.156C4.65939 1.12933 6.47005 0.615999 8.78472 0.615999C11.4167 0.615999 13.4047 1.176 14.7487 2.296C16.1114 3.416 16.8301 4.984 16.9047 7H13.2367C13.1621 5.86133 12.7794 5.02133 12.0887 4.48C11.4167 3.93867 10.3341 3.668 8.84072 3.668C7.68339 3.668 6.79672 3.88267 6.18072 4.312C5.56472 4.74133 5.25672 5.348 5.25672 6.132C5.25672 6.93467 5.53672 7.55067 6.09672 7.98C6.67539 8.40933 7.69272 8.77333 9.14872 9.072L10.8847 9.408C13.2181 9.87467 14.8981 10.5747 15.9247 11.508C16.9701 12.4227 17.4927 13.692 17.4927 15.316C17.4927 17.2573 16.7834 18.7693 15.3647 19.852C13.9461 20.916 11.9674 21.448 9.42872 21.448ZM36.9007 21H32.8967L31.3287 16.604H22.5927L21.0527 21H17.1607L24.7487 1.064H29.1727L36.9007 21ZM24.4967 11.228L23.7407 13.384H30.1807L29.3967 11.228C28.7433 9.56667 27.922 7.28933 26.9327 4.396C26.1487 6.71067 25.3367 8.988 24.4967 11.228ZM53.4228 15.708L53.5908 18.676C53.6095 19.628 53.8148 20.4027 54.2068 21H50.3148C49.9788 20.44 49.8015 19.6467 49.7828 18.62L49.6988 16.436C49.6428 15.2227 49.3628 14.3827 48.8588 13.916C48.3735 13.4307 47.5895 13.188 46.5068 13.188H41.5788V21H37.7988V1.064H46.8428C49.0642 1.064 50.7908 1.568 52.0228 2.576C53.2548 3.584 53.8708 4.956 53.8708 6.692C53.8708 9.08133 52.7602 10.668 50.5388 11.452C51.5468 11.7693 52.2655 12.2733 52.6948 12.964C53.1428 13.636 53.3855 14.5507 53.4228 15.708ZM41.5788 4.172V10.22H46.6188C47.6828 10.22 48.5042 9.95867 49.0828 9.436C49.6802 8.89467 49.9788 8.12 49.9788 7.112C49.9788 6.16 49.6708 5.432 49.0548 4.928C48.4575 4.424 47.5988 4.172 46.4788 4.172H41.5788ZM72.2119 18.592C70.3826 20.496 67.9746 21.448 64.9879 21.448C62.0013 21.448 59.5933 20.496 57.7639 18.592C55.9346 16.6693 55.0199 14.1493 55.0199 11.032C55.0199 7.91467 55.9346 5.39467 57.7639 3.472C59.5933 1.568 62.0013 0.615999 64.9879 0.615999C67.9746 0.615999 70.3826 1.568 72.2119 3.472C74.0226 5.35733 74.9279 7.87733 74.9279 11.032C74.9279 14.1867 74.0226 16.7067 72.2119 18.592ZM58.9679 11.032C58.9679 13.216 59.5186 14.9427 60.6199 16.212C61.7213 17.4813 63.1773 18.116 64.9879 18.116C66.8173 18.116 68.2826 17.4813 69.3839 16.212C70.4666 14.9613 71.0079 13.2347 71.0079 11.032C71.0079 8.82933 70.4666 7.10267 69.3839 5.852C68.2826 4.58267 66.8173 3.948 64.9879 3.948C63.1773 3.948 61.7213 4.58267 60.6199 5.852C59.5186 7.12133 58.9679 8.848 58.9679 11.032ZM84.1614 21.448C81.4547 21.448 79.3547 20.8413 77.8614 19.628C76.3867 18.4147 75.64 16.6787 75.6214 14.42H79.3454C79.364 15.8387 79.784 16.856 80.6054 17.472C81.4454 18.088 82.668 18.396 84.2734 18.396C85.58 18.396 86.5787 18.1533 87.2694 17.668C87.96 17.164 88.3054 16.4453 88.3054 15.512C88.3054 14.728 88.0067 14.1307 87.4094 13.72C86.8307 13.3093 85.7667 12.9453 84.2174 12.628L82.5374 12.292C78.2627 11.4893 76.1254 9.47333 76.1254 6.244C76.1254 4.52667 76.7787 3.164 78.0854 2.156C79.392 1.12933 81.2027 0.615999 83.5174 0.615999C86.1494 0.615999 88.1374 1.176 89.4814 2.296C90.844 3.416 91.5627 4.984 91.6374 7H87.9694C87.8947 5.86133 87.512 5.02133 86.8214 4.48C86.1494 3.93867 85.0667 3.668 83.5734 3.668C82.416 3.668 81.5294 3.88267 80.9134 4.312C80.2974 4.74133 79.9894 5.348 79.9894 6.132C79.9894 6.93467 80.2694 7.55067 80.8294 7.98C81.408 8.40933 82.4254 8.77333 83.8814 9.072L85.6174 9.408C87.9507 9.87467 89.6307 10.5747 90.6574 11.508C91.7027 12.4227 92.2254 13.692 92.2254 15.316C92.2254 17.2573 91.516 18.7693 90.0974 19.852C88.6787 20.916 86.7 21.448 84.1614 21.448ZM106.912 21.448C104.206 21.448 102.106 20.8413 100.612 19.628C99.1378 18.4147 98.3911 16.6787 98.3725 14.42H102.096C102.115 15.8387 102.535 16.856 103.356 17.472C104.196 18.088 105.419 18.396 107.024 18.396C108.331 18.396 109.33 18.1533 110.02 17.668C110.711 17.164 111.056 16.4453 111.056 15.512C111.056 14.728 110.758 14.1307 110.16 13.72C109.582 13.3093 108.518 12.9453 106.968 12.628L105.288 12.292C101.014 11.4893 98.8765 9.47333 98.8765 6.244C98.8765 4.52667 99.5298 3.164 100.836 2.156C102.143 1.12933 103.954 0.615999 106.268 0.615999C108.9 0.615999 110.888 1.176 112.232 2.296C113.595 3.416 114.314 4.984 114.388 7H110.72C110.646 5.86133 110.263 5.02133 109.572 4.48C108.9 3.93867 107.818 3.668 106.324 3.668C105.167 3.668 104.28 3.88267 103.664 4.312C103.048 4.74133 102.74 5.348 102.74 6.132C102.74 6.93467 103.02 7.55067 103.58 7.98C104.159 8.40933 105.176 8.77333 106.632 9.072L108.368 9.408C110.702 9.87467 112.382 10.5747 113.408 11.508C114.454 12.4227 114.976 13.692 114.976 15.316C114.976 17.2573 114.267 18.7693 112.848 19.852C111.43 20.916 109.451 21.448 106.912 21.448ZM114.378 1.064H130.954V4.452H124.57V21H120.762V4.452H114.378V1.064ZM140.175 21.42C137.58 21.42 135.536 20.7293 134.043 19.348C132.568 17.948 131.831 15.9973 131.831 13.496V1.064H135.611V13.524C135.611 15.036 136.003 16.184 136.787 16.968C137.571 17.752 138.7 18.144 140.175 18.144C141.649 18.144 142.779 17.752 143.563 16.968C144.347 16.184 144.739 15.036 144.739 13.524V1.064H148.519V13.496C148.519 16.0347 147.781 17.9947 146.307 19.376C144.832 20.7387 142.788 21.42 140.175 21.42ZM150.937 1.064H158.553C161.745 1.064 164.209 1.95067 165.945 3.724C167.681 5.516 168.549 7.952 168.549 11.032C168.549 14.112 167.681 16.5387 165.945 18.312C164.209 20.104 161.745 21 158.553 21H150.937V1.064ZM154.717 17.752H158.497C160.457 17.752 161.969 17.1827 163.033 16.044C164.097 14.8867 164.629 13.216 164.629 11.032C164.629 8.848 164.097 7.18667 163.033 6.048C161.969 4.89067 160.457 4.312 158.497 4.312H154.717V17.752ZM174.2 21H170.42V1.064H174.2V21ZM193.267 18.592C191.438 20.496 189.03 21.448 186.043 21.448C183.056 21.448 180.648 20.496 178.819 18.592C176.99 16.6693 176.075 14.1493 176.075 11.032C176.075 7.91467 176.99 5.39467 178.819 3.472C180.648 1.568 183.056 0.615999 186.043 0.615999C189.03 0.615999 191.438 1.568 193.267 3.472C195.078 5.35733 195.983 7.87733 195.983 11.032C195.983 14.1867 195.078 16.7067 193.267 18.592ZM180.023 11.032C180.023 13.216 180.574 14.9427 181.675 16.212C182.776 17.4813 184.232 18.116 186.043 18.116C187.872 18.116 189.338 17.4813 190.439 16.212C191.522 14.9613 192.063 13.2347 192.063 11.032C192.063 8.82933 191.522 7.10267 190.439 5.852C189.338 4.58267 187.872 3.948 186.043 3.948C184.232 3.948 182.776 4.58267 181.675 5.852C180.574 7.12133 180.023 8.848 180.023 11.032Z" fill="#F7F7F7"/>
</svg>
